<svg width="500" height="500" viewBox="0 0 500 500" fill="none" xmlns="http://www.w3.org/2000/svg">
  <path fill-rule="evenodd" clip-rule="evenodd" d="M225.855 18.2108C229.322 6.08439 241.165 -1.48019 253.47 0.243937C265.816 1.97383 275.003 12.5416 275.003 25.0182V148.206C311.043 117.157 357.272 99.7448 405.49 99.7448H475C488.807 99.7448 500 110.945 500 124.761C500 138.577 488.807 149.777 475 149.777H405.49C361.702 149.777 320.1 168.923 291.603 202.191L275.003 221.571V404.055C275.003 457.044 232.075 500 179.12 500C97.2028 500 53.0097 403.852 106.321 341.615L225.003 203.063V132.692C177.346 200.851 106.106 255.394 31.052 274.114C17.6549 277.456 4.08742 269.297 0.7481 255.891C-2.59122 242.486 5.56218 228.909 18.9592 225.568C109.859 202.895 198.627 113.448 225.855 18.2108ZM225.003 279.941L144.283 374.176C118.772 403.958 139.92 449.968 179.12 449.968C204.461 449.968 225.003 429.412 225.003 404.055V279.941Z" fill="black"/>
  <style>
    @media (prefers-color-scheme: dark) {
      path {
        fill: white;
      }
    }
  </style>
</svg>