<svg width="10" height="10" viewBox="0 0 10 10" fill="none" xmlns="http://www.w3.org/2000/svg">
<g clip-path="url(#clip0_2390_585)">
<rect width="10" height="10" rx="2" fill="url(#paint0_linear_2390_585)"/>
<path fill-rule="evenodd" clip-rule="evenodd" d="M4.71202 2.21853C4.75365 2.07301 4.89586 1.98224 5.04361 2.00293C5.19186 2.02369 5.30218 2.1505 5.30218 2.30022V3.77848C5.73494 3.40588 6.29006 3.19694 6.86904 3.19694H7.70371C7.8695 3.19694 8.0039 3.33134 8.0039 3.49713C8.0039 3.66292 7.8695 3.79732 7.70371 3.79732H6.86904C6.34324 3.79732 5.84369 4.02708 5.5015 4.4263L5.30218 4.65885V6.84866C5.30218 7.48453 4.78671 8 4.15084 8C3.16719 8 2.63653 6.84622 3.27668 6.09938L4.70179 4.43675V3.5923C4.12954 4.41021 3.2741 5.06473 2.37287 5.28937C2.212 5.32947 2.04908 5.23156 2.00898 5.0707C1.96889 4.90983 2.06679 4.74691 2.22766 4.70681C3.31917 4.43474 4.38508 3.36138 4.71202 2.21853ZM4.70179 5.35929L3.73252 6.49011C3.42619 6.8475 3.68013 7.39962 4.15084 7.39962C4.45512 7.39962 4.70179 7.15295 4.70179 6.84866V5.35929Z" fill="white"/>
</g>
<defs>
<linearGradient id="paint0_linear_2390_585" x1="10" y1="-1.31602e-07" x2="-2.05763" y2="5.43572" gradientUnits="userSpaceOnUse">
<stop stop-color="#FFA28D"/>
<stop offset="1" stop-color="#EF47D4"/>
</linearGradient>
<clipPath id="clip0_2390_585">
<rect width="10" height="10" rx="2" fill="white"/>
</clipPath>
</defs>
</svg>
