<svg width="7" height="6" viewBox="0 0 7 6" fill="none" xmlns="http://www.w3.org/2000/svg">
<path fill-rule="evenodd" clip-rule="evenodd" d="M2.71202 0.218529C2.75365 0.0730127 2.89586 -0.0177623 3.04361 0.00292725C3.19186 0.023686 3.30218 0.150499 3.30218 0.300218V1.77848C3.73494 1.40588 4.29006 1.19694 4.86904 1.19694H5.70371C5.8695 1.19694 6.0039 1.33134 6.0039 1.49713C6.0039 1.66292 5.8695 1.79732 5.70371 1.79732H4.86904C4.34324 1.79732 3.84369 2.02708 3.5015 2.4263L3.30218 2.65885V4.84866C3.30218 5.48453 2.78671 6 2.15084 6C1.16719 6 0.63653 4.84622 1.27668 4.09938L2.70179 2.43675V1.5923C2.12954 2.41021 1.2741 3.06473 0.372866 3.28937C0.211997 3.32947 0.049081 3.23156 0.00898304 3.0707C-0.0311149 2.90983 0.0667895 2.74691 0.227659 2.70681C1.31917 2.43474 2.38508 1.36138 2.71202 0.218529ZM2.70179 3.35929L1.73252 4.49011C1.42619 4.8475 1.68013 5.39962 2.15084 5.39962C2.45512 5.39962 2.70179 5.15295 2.70179 4.84866V3.35929Z" fill="url(#paint0_linear_2395_588)"/>
<defs>
<linearGradient id="paint0_linear_2395_588" x1="6.0039" y1="-7.8961e-08" x2="-1.23379" y2="3.26496" gradientUnits="userSpaceOnUse">
<stop stop-color="#FFA28D"/>
<stop offset="1" stop-color="#EF47D4"/>
</linearGradient>
</defs>
</svg>
